<svg width="35" height="35" viewBox="0 0 35 35" fill="none" xmlns="http://www.w3.org/2000/svg">
<g id="ph:copy-bold">
<path id="Vector" d="M27.6271 4.28881L11.6549 5.23247C11.2578 5.25593 10.8862 5.43619 10.622 5.7336C10.3578 6.031 10.2225 6.42119 10.246 6.81832L10.5114 11.3105L6.01923 11.5759C5.6221 11.5994 5.25055 11.7796 4.98633 12.077C4.7221 12.3744 4.58684 12.7646 4.61031 13.1617L5.55396 29.1339C5.57742 29.531 5.75769 29.9026 6.05509 30.1668C6.3525 30.431 6.74269 30.5663 7.13982 30.5428L23.112 29.5992C23.5091 29.5757 23.8806 29.3954 24.1449 29.098C24.4091 28.8006 24.5444 28.4104 24.5209 28.0133L24.2555 23.5211L28.7477 23.2557C29.1448 23.2323 29.5163 23.052 29.7806 22.7546C30.0448 22.4572 30.18 22.067 30.1566 21.6699L29.2129 5.69773C29.1895 5.3006 29.0092 4.92905 28.7118 4.66483C28.4144 4.40061 28.0242 4.26535 27.6271 4.28881ZM21.4376 26.6929L8.46027 27.4596L7.69355 14.4822L20.6709 13.7155L21.4376 26.6929ZM27.0733 20.3494L24.0785 20.5264L23.5772 12.0412C23.5538 11.644 23.3735 11.2725 23.0761 11.0083C22.7787 10.744 22.3885 10.6088 21.9914 10.6322L13.5062 11.1336L13.3292 8.13878L26.3066 7.37206L27.0733 20.3494Z" fill="black"/>
</g>
</svg>
