<svg width="25" height="25" viewBox="0 0 25 25" fill="none" xmlns="http://www.w3.org/2000/svg">
<path d="M2.68359 19.1992V8.19922H1.68359V6.19922H4.68359V4.19922C4.68359 3.934 4.78895 3.67965 4.97649 3.49211C5.16402 3.30458 5.41838 3.19922 5.68359 3.19922H19.6836C19.9488 3.19922 20.2032 3.30458 20.3907 3.49211C20.5782 3.67965 20.6836 3.934 20.6836 4.19922V6.19922H23.6836V8.19922H22.6836V19.1992H23.6836V21.1992H1.68359V19.1992H2.68359ZM13.6836 19.1992V12.1992H11.6836V19.1992H13.6836ZM8.68359 19.1992V12.1992H6.68359V19.1992H8.68359ZM18.6836 19.1992V12.1992H16.6836V19.1992H18.6836ZM6.68359 5.19922V6.19922H18.6836V5.19922H6.68359Z" fill="white"/>
</svg>
