<svg width="25" height="25" viewBox="0 0 25 25" fill="none" xmlns="http://www.w3.org/2000/svg">
<g clip-path="url(#clip0_1832_783)">
<path fill-rule="evenodd" clip-rule="evenodd" d="M6.08221 7.87195C6.86218 7.87195 7.6102 7.56211 8.16171 7.01059C8.71323 6.45907 9.02307 5.71106 9.02307 4.93109C9.02307 4.15113 8.71323 3.40311 8.16171 2.85159C7.6102 2.30007 6.86218 1.99023 6.08221 1.99023C5.30248 1.99023 4.55468 2.29998 4.00332 2.85134C3.45196 3.4027 3.14221 4.1505 3.14221 4.93023C3.14221 5.70997 3.45196 6.45777 4.00332 7.00913C4.55468 7.56049 5.30248 7.87195 6.08221 7.87195ZM19.2342 7.87195C20.0142 7.87195 20.7622 7.56211 21.3137 7.01059C21.8652 6.45907 22.1751 5.71106 22.1751 4.93109C22.1751 4.15113 21.8652 3.40311 21.3137 2.85159C20.7622 2.30007 20.0142 1.99023 19.2342 1.99023C18.4545 1.99023 17.7067 2.29998 17.1553 2.85134C16.604 3.4027 16.2942 4.1505 16.2942 4.93023C16.2942 5.70997 16.604 6.45777 17.1553 7.00913C17.7067 7.56049 18.4545 7.87195 19.2342 7.87195ZM19.2342 8.48395C18.054 8.48212 16.9077 8.87832 15.9805 9.60852C16.683 10.2136 17.2063 10.9997 17.4934 11.8813C17.7806 12.7629 17.8206 13.7063 17.6091 14.6091H23.6451C23.8724 14.6091 24.0904 14.5188 24.2512 14.358C24.4119 14.1973 24.5022 13.9793 24.5022 13.7519C24.5022 12.3548 23.9472 11.0149 22.9593 10.0269C21.9713 9.03897 20.6314 8.48395 19.2342 8.48395ZM6.08221 8.48395C7.26241 8.48212 8.40874 8.87832 9.33593 9.60852C8.63338 10.2136 8.11011 10.9997 7.82299 11.8813C7.53586 12.7629 7.49587 13.7063 7.70736 14.6091H1.66964C1.44231 14.6091 1.2243 14.5188 1.06355 14.358C0.902806 14.1973 0.8125 13.9793 0.8125 13.7519C0.812725 13.0601 0.949209 12.3752 1.21416 11.7361C1.47911 11.097 1.86734 10.5164 2.35667 10.0274C2.84601 9.53839 3.42688 9.15054 4.06611 8.88601C4.70534 8.62148 5.39041 8.48544 6.08221 8.48566V8.48395ZM12.6582 16.3971C13.0443 16.3971 13.4266 16.321 13.7833 16.1733C14.14 16.0255 14.4641 15.809 14.7371 15.536C15.0101 15.263 15.2267 14.9389 15.3744 14.5822C15.5222 14.2255 15.5982 13.8432 15.5982 13.4571C15.5982 13.071 15.5222 12.6887 15.3744 12.332C15.2267 11.9753 15.0101 11.6512 14.7371 11.3782C14.4641 11.1052 14.14 10.8886 13.7833 10.7409C13.4266 10.5931 13.0443 10.5171 12.6582 10.5171C11.8785 10.5171 11.1307 10.8268 10.5793 11.3782C10.028 11.9296 9.71821 12.6774 9.71821 13.4571C9.71821 14.2368 10.028 14.9846 10.5793 15.536C11.1307 16.0873 11.8785 16.3971 12.6582 16.3971ZM7.39021 22.2771C7.39021 21.5853 7.52648 20.9003 7.79122 20.2611C8.05596 19.622 8.444 19.0412 8.93318 18.5521C9.42235 18.0629 10.0031 17.6748 10.6422 17.4101C11.2814 17.1454 11.9664 17.0091 12.6582 17.0091C13.35 17.0091 14.035 17.1454 14.6742 17.4101C15.3133 17.6748 15.8941 18.0629 16.3833 18.5521C16.8724 19.0412 17.2605 19.622 17.5252 20.2611C17.79 20.9003 17.9262 21.5853 17.9262 22.2771C17.9262 22.5044 17.8359 22.7224 17.6752 22.8832C17.5144 23.0439 17.2964 23.1342 17.0691 23.1342H8.24736C8.02003 23.1342 7.80201 23.0439 7.64127 22.8832C7.48052 22.7224 7.39021 22.5044 7.39021 22.2771Z" fill="white"/>
</g>
<defs>
<clipPath id="clip0_1832_783">
<rect width="24" height="24" fill="white" transform="translate(0.660156 0.222656)"/>
</clipPath>
</defs>
</svg>
