<svg width="143" height="37" viewBox="0 0 143 37" fill="none" xmlns="http://www.w3.org/2000/svg">
<path d="M14.2881 11.2559L24.0639 27.6173H4.51232L14.2881 11.2559Z" fill="black"/>
<path d="M30.5186 19.625L22.5002 6.40269L38.5369 6.40269L30.5186 19.625Z" fill="black"/>
<path d="M127.145 17.987C127.145 16.4738 127.486 15.1418 128.168 13.9909C128.871 12.84 129.819 11.9449 131.013 11.3055C132.206 10.6448 133.56 10.3145 135.073 10.3145C136.586 10.3145 137.929 10.6448 139.101 11.3055C140.294 11.9449 141.243 12.84 141.946 13.9909C142.649 15.1418 143.001 16.4738 143.001 17.987C143.001 19.4789 142.649 20.8109 141.946 21.9831C141.243 23.134 140.294 24.0398 139.101 24.7005C137.929 25.3399 136.586 25.6595 135.073 25.6595C133.56 25.6595 132.206 25.3399 131.013 24.7005C129.819 24.0398 128.871 23.134 128.168 21.9831C127.486 20.8109 127.145 19.4789 127.145 17.987ZM130.693 17.987C130.693 18.9034 130.885 19.7133 131.269 20.4166C131.652 21.0986 132.174 21.6421 132.835 22.0471C133.496 22.4307 134.242 22.6225 135.073 22.6225C135.883 22.6225 136.618 22.4307 137.279 22.0471C137.961 21.6421 138.494 21.0986 138.877 20.4166C139.261 19.7133 139.453 18.9034 139.453 17.987C139.453 17.0706 139.261 16.2607 138.877 15.5574C138.494 14.854 137.961 14.3106 137.279 13.9269C136.618 13.5433 135.883 13.3515 135.073 13.3515C134.242 13.3515 133.496 13.5433 132.835 13.9269C132.174 14.3106 131.652 14.854 131.269 15.5574C130.885 16.2607 130.693 17.0706 130.693 17.987Z" fill="black"/>
<path d="M111.316 10.6348H115.089L118.925 20.1295L122.761 10.6348H126.566L118.925 26.6832L111.316 10.6348Z" fill="black"/>
<path d="M94.8906 17.987C94.8906 16.4738 95.2316 15.1418 95.9136 13.9909C96.6169 12.84 97.5654 11.9449 98.7589 11.3055C99.9524 10.6448 101.306 10.3145 102.819 10.3145C104.332 10.3145 105.675 10.6448 106.847 11.3055C108.041 11.9449 108.989 12.84 109.692 13.9909C110.396 15.1418 110.747 16.4738 110.747 17.987C110.747 19.4789 110.396 20.8109 109.692 21.9831C108.989 23.134 108.041 24.0398 106.847 24.7005C105.675 25.3399 104.332 25.6595 102.819 25.6595C101.306 25.6595 99.9524 25.3399 98.7589 24.7005C97.5654 24.0398 96.6169 23.134 95.9136 21.9831C95.2316 20.8109 94.8906 19.4789 94.8906 17.987ZM98.4392 17.987C98.4392 18.9034 98.631 19.7133 99.0146 20.4166C99.3982 21.0986 99.9204 21.6421 100.581 22.0471C101.242 22.4307 101.988 22.6225 102.819 22.6225C103.629 22.6225 104.364 22.4307 105.025 22.0471C105.707 21.6421 106.24 21.0986 106.623 20.4166C107.007 19.7133 107.199 18.9034 107.199 17.987C107.199 17.0706 107.007 16.2607 106.623 15.5574C106.24 14.854 105.707 14.3106 105.025 13.9269C104.364 13.5433 103.629 13.3515 102.819 13.3515C101.988 13.3515 101.242 13.5433 100.581 13.9269C99.9204 14.3106 99.3982 14.854 99.0146 15.5574C98.631 16.2607 98.4392 17.0706 98.4392 17.987Z" fill="black"/>
<path d="M88.0527 16.3886C88.0527 15.3016 87.8289 14.4811 87.3813 13.9269C86.9337 13.3728 86.2411 13.0958 85.3033 13.0958C84.6639 13.0958 84.0992 13.2343 83.609 13.5113C83.1188 13.7671 82.7352 14.1507 82.4581 14.6622C82.181 15.1524 82.0425 15.7279 82.0425 16.3886V25.3399H78.5898V10.6341H82.0425V12.9039C82.5114 12.0301 83.1081 11.3801 83.8328 10.9538C84.5787 10.5276 85.4632 10.3145 86.4862 10.3145C88.1486 10.3145 89.4167 10.826 90.2905 11.849C91.1643 12.8507 91.6012 14.236 91.6012 16.0049V25.3399H88.0527V16.3886Z" fill="black"/>
<path d="M65.7015 20.5125C66.1704 21.0241 66.6393 21.4716 67.1082 21.8552C67.5984 22.2176 68.0886 22.4946 68.5787 22.6864C69.0689 22.8569 69.5591 22.9422 70.0493 22.9422C70.6674 22.9422 71.1469 22.8037 71.4879 22.5266C71.8502 22.2495 72.0314 21.8659 72.0314 21.3757C72.0314 20.9495 71.8929 20.5871 71.6158 20.2888C71.3387 19.9691 70.9551 19.7027 70.4649 19.4895C69.9747 19.2551 69.3993 19.0207 68.7386 18.7862C68.0779 18.5305 67.4172 18.2321 66.7565 17.8911C66.1171 17.5288 65.5843 17.0599 65.1581 16.4845C64.7531 15.909 64.5507 15.1844 64.5507 14.3106C64.5507 13.4154 64.7744 12.6695 65.222 12.0727C65.6909 11.476 66.309 11.0391 67.0762 10.762C67.8648 10.4636 68.7066 10.3145 69.6018 10.3145C70.4116 10.3145 71.1682 10.4317 71.8716 10.6661C72.5962 10.9006 73.2462 11.2096 73.8217 11.5932C74.3971 11.9768 74.8873 12.4137 75.2922 12.9039L73.3741 14.95C72.8839 14.3745 72.2978 13.9056 71.6158 13.5433C70.9338 13.181 70.2305 12.9998 69.5058 12.9998C69.0157 12.9998 68.6107 13.1064 68.291 13.3195C67.9713 13.5327 67.8115 13.8417 67.8115 14.2466C67.8115 14.5876 67.95 14.8967 68.2271 15.1737C68.5255 15.4295 68.9091 15.6639 69.378 15.877C69.8682 16.0902 70.4116 16.314 71.0084 16.5484C71.8183 16.8681 72.5642 17.2197 73.2462 17.6034C73.9282 17.987 74.4717 18.4559 74.8766 19.01C75.3029 19.5641 75.516 20.2888 75.516 21.1839C75.516 22.5692 75.0365 23.6881 74.0774 24.5406C73.1397 25.3718 71.8609 25.7874 70.2411 25.7874C69.2394 25.7874 68.3123 25.6382 67.4598 25.3399C66.6286 25.0202 65.8934 24.6152 65.254 24.125C64.6359 23.6135 64.1138 23.0807 63.6875 22.5266L65.7015 20.5125Z" fill="black"/>
<path d="M45.9023 17.987C45.9023 16.4738 46.2433 15.1418 46.9254 13.9909C47.6287 12.84 48.5771 11.9449 49.7706 11.3055C50.9641 10.6448 52.3174 10.3145 53.8306 10.3145C55.3438 10.3145 56.6865 10.6448 57.8587 11.3055C59.0522 11.9449 60.0007 12.84 60.704 13.9909C61.4073 15.1418 61.7589 16.4738 61.7589 17.987C61.7589 19.4789 61.4073 20.8109 60.704 21.9831C60.0007 23.134 59.0522 24.0398 57.8587 24.7005C56.6865 25.3399 55.3438 25.6595 53.8306 25.6595C52.3174 25.6595 50.9641 25.3399 49.7706 24.7005C48.5771 24.0398 47.6287 23.134 46.9254 21.9831C46.2433 20.8109 45.9023 19.4789 45.9023 17.987ZM49.4509 17.987C49.4509 18.9034 49.6427 19.7133 50.0263 20.4166C50.41 21.0986 50.9321 21.6421 51.5928 22.0471C52.2535 22.4307 52.9995 22.6225 53.8306 22.6225C54.6405 22.6225 55.3758 22.4307 56.0365 22.0471C56.7185 21.6421 57.2513 21.0986 57.6349 20.4166C58.0186 19.7133 58.2104 18.9034 58.2104 17.987C58.2104 17.0706 58.0186 16.2607 57.6349 15.5574C57.2513 14.854 56.7185 14.3106 56.0365 13.9269C55.3758 13.5433 54.6405 13.3515 53.8306 13.3515C52.9995 13.3515 52.2535 13.5433 51.5928 13.9269C50.9321 14.3106 50.41 14.854 50.0263 15.5574C49.6427 16.2607 49.4509 17.0706 49.4509 17.987Z" fill="black"/>
</svg>
