<svg width="41" height="41" viewBox="0 0 41 41" fill="none" xmlns="http://www.w3.org/2000/svg">
<g clip-path="url(#clip0_869_680)">
<path fill-rule="evenodd" clip-rule="evenodd" d="M36.3567 5.28223C36.8485 5.07297 37.3868 5.0008 37.9156 5.07323C38.4443 5.14565 38.9442 5.36003 39.3632 5.69405C39.7822 6.02808 40.105 6.46952 40.298 6.97245C40.4909 7.47538 40.547 8.02141 40.4604 8.5537L35.9467 36.2324C35.5089 38.9022 32.6112 40.4333 30.1891 39.1034C28.1631 37.9908 25.154 36.2766 22.4474 34.488C21.0941 33.5927 16.9485 30.7256 17.458 28.6855C17.8959 26.9411 24.8615 20.3861 28.8418 16.4889C30.4041 14.9578 29.6916 14.0745 27.8467 15.4829C23.2653 18.9797 15.9097 24.2974 13.4777 25.7943C11.3323 27.1141 10.2138 27.3395 8.8764 27.1141C6.43646 26.7037 4.17363 26.0679 2.32675 25.2933C-0.16892 24.2471 -0.04752 20.7784 2.32476 19.7684L36.3567 5.28223Z" fill="white"/>
</g>
<defs>
<clipPath id="clip0_869_680">
<rect width="40" height="40" fill="white" transform="translate(0.5 0.5)"/>
</clipPath>
</defs>
</svg>
